<svg width="19" height="33" viewBox="0 0 19 33" fill="none" xmlns="http://www.w3.org/2000/svg">
<path d="M17.8286 27.4785L6.83526 16.4852L17.8286 5.49182C18.0909 5.22951 18.299 4.9181 18.441 4.57536C18.5829 4.23263 18.656 3.86529 18.656 3.49432C18.656 3.12335 18.5829 2.75602 18.441 2.41329C18.299 2.07055 18.0909 1.75914 17.8286 1.49683C17.5663 1.23451 17.2549 1.02643 16.9121 0.884466C16.5694 0.742502 16.2021 0.669434 15.8311 0.669434C15.4601 0.669434 15.0928 0.742502 14.7501 0.884466C14.4073 1.02643 14.0959 1.23451 13.8336 1.49683L0.828592 14.5018C0.565932 14.7639 0.357547 15.0753 0.215366 15.4181C0.0731856 15.7608 0 16.1282 0 16.4993C0 16.8704 0.0731856 17.2378 0.215366 17.5806C0.357547 17.9233 0.565932 18.2347 0.828592 18.4968L13.8336 31.5018C14.9386 32.6068 16.7236 32.6068 17.8286 31.5018C18.9053 30.3968 18.9336 28.5835 17.8286 27.4785Z" fill="#1C252E"/>
</svg>
