<svg width="20" height="33" viewBox="0 0 20 33" fill="none" xmlns="http://www.w3.org/2000/svg">
<path d="M1.4834 27.4786L12.4767 16.4852L1.4834 5.4919C1.22108 5.22959 1.013 4.91817 0.87104 4.57544C0.729076 4.23271 0.656006 3.86537 0.656006 3.4944C0.656006 3.12343 0.729076 2.7561 0.87104 2.41336C1.013 2.07063 1.22108 1.75922 1.4834 1.4969C1.74571 1.23459 2.05713 1.02651 2.39986 0.884543C2.74259 0.742578 3.10993 0.66951 3.4809 0.66951C3.85187 0.66951 4.2192 0.742578 4.56194 0.884543C4.90467 1.02651 5.21608 1.23459 5.4784 1.4969L18.4834 14.5019C19.5884 15.6069 19.5884 17.3919 18.4834 18.4969L5.4784 31.5019C5.21627 31.7646 4.90492 31.973 4.56217 32.1151C4.21941 32.2573 3.85197 32.3305 3.4809 32.3305C3.10982 32.3305 2.74239 32.2573 2.39963 32.1151C2.05687 31.973 1.74552 31.7646 1.4834 31.5019C0.406732 30.3969 0.378398 28.5836 1.4834 27.4786Z" fill="#1C252E"/>
</svg>
