<svg width="29" height="28" viewBox="0 0 29 28" fill="none" xmlns="http://www.w3.org/2000/svg">
<path d="M28.3333 3.46675V1.06675L25.9333 0.800081C25.8 0.800081 25 0.666748 23.6666 0.666748C18.2 0.666748 14.2 2.26675 11.9333 5.06675C10.2 4.00008 7.79995 3.33342 4.99995 3.33342C3.66662 3.33342 2.73328 3.46675 2.73328 3.46675L0.199951 3.86675L0.333285 6.13342C0.466618 10.1334 2.46662 17.7334 9.39995 17.7334H9.66662V22.2668C4.59995 22.9334 0.333285 24.6668 0.333285 24.6668V27.3334H27V24.6668C27 24.6668 22.7333 22.9334 17.6666 22.2668V18.0001C26.0666 17.8668 28.3333 8.40008 28.3333 3.46675ZM13.6666 22.0001H12.3333V14.5334C12.3333 14.5334 12.0666 10.0001 8.33329 10.0001C8.33329 10.0001 10.3333 11.0667 10.8666 14.9334C10.3333 15.0668 9.79995 15.0668 9.39995 15.0668C3.26662 15.0668 2.99995 6.13342 2.99995 6.13342C2.99995 6.13342 3.79995 6.00008 4.99995 6.00008C7.53329 6.00008 11.6666 6.53342 12.8666 10.1334C13.5333 4.13342 20.3333 3.33342 23.6666 3.33342C24.8666 3.33342 25.6666 3.46675 25.6666 3.46675C25.6666 3.46675 25.6666 15.4668 17.2666 15.4668H16.3333C16.3333 12.8001 19 8.80008 19 8.80008C15 10.1334 15 15.3334 15 15.3334V22.0001H13.6666Z" fill="#1C252E"/>
</svg>
