<svg width="33" height="31" viewBox="0 0 33 31" fill="none" xmlns="http://www.w3.org/2000/svg">
<path d="M21.7879 20.0909C21.7879 18.5841 17.5142 17.3636 12.2424 17.3636M21.7879 20.0909C21.7879 21.5977 17.5142 22.8182 12.2424 22.8182C6.97059 22.8182 2.69695 21.5977 2.69695 20.0909M21.7879 20.0909V26.8232C21.7879 28.3764 17.5142 29.6364 12.2424 29.6364C6.97059 29.6364 2.69695 28.3777 2.69695 26.8232V20.0909M21.7879 20.0909C27.0024 20.0909 31.3333 18.745 31.3333 17.3636V3.72727M12.2424 17.3636C6.97059 17.3636 2.69695 18.5841 2.69695 20.0909M12.2424 17.3636C6.21786 17.3636 1.33331 16.0177 1.33331 14.6364V7.81818M12.2424 5.09091C6.21786 5.09091 1.33331 6.31136 1.33331 7.81818M1.33331 7.81818C1.33331 9.325 6.21786 10.5455 12.2424 10.5455C12.2424 11.9268 16.6783 13.2727 21.8929 13.2727C27.106 13.2727 31.3333 11.9268 31.3333 10.5455M31.3333 3.72727C31.3333 2.22045 27.106 1 21.8929 1C16.6783 1 12.4524 2.22045 12.4524 3.72727M31.3333 3.72727C31.3333 5.23409 27.106 6.45455 21.8929 6.45455C16.6797 6.45455 12.4524 5.23409 12.4524 3.72727M12.4524 3.72727V17.59" stroke="#1C252E" stroke-width="2"/>
</svg>
