<svg width="28" height="28" viewBox="0 0 28 28" fill="none" xmlns="http://www.w3.org/2000/svg">
<path d="M11.5199 0.674561C12.4626 0.674561 12.9999 1.61323 12.9999 2.55589V8.33323H11.8066C11.5745 7.75954 11.1502 7.28442 10.6062 6.98931C10.0623 6.69419 9.4326 6.59745 8.82515 6.71566C8.2177 6.83387 7.67027 7.15968 7.27669 7.63724C6.8831 8.1148 6.66786 8.71438 6.66786 9.33323C6.66786 9.95207 6.8831 10.5517 7.27669 11.0292C7.67027 11.5068 8.2177 11.8326 8.82515 11.9508C9.4326 12.069 10.0623 11.9723 10.6062 11.6771C11.1502 11.382 11.5745 10.9069 11.8066 10.3332H12.9999V24.8639C12.9999 25.6586 12.6639 26.4492 11.9559 26.8106C11.3139 27.1468 10.6007 27.3242 9.87593 27.3279C7.8626 27.3279 6.36526 26.3092 5.40126 25.1039C4.73364 24.2721 4.2681 23.2967 4.04126 22.2546C3.41862 22.0708 2.84196 21.7573 2.34926 21.3346C1.4026 20.5199 0.666595 19.2132 0.666595 17.2879C0.666595 16.2812 0.738596 15.4039 0.919929 14.6666H6.53326C7.43726 14.6666 8.1866 15.3332 8.31326 16.2012C7.74182 16.4376 7.27031 16.8653 6.97943 17.411C6.68854 17.9568 6.59638 18.5866 6.7187 19.1928C6.84103 19.799 7.17024 20.3439 7.64999 20.7341C8.12974 21.1243 8.7302 21.3357 9.34861 21.332C9.96701 21.3283 10.5649 21.1098 11.04 20.7138C11.515 20.3179 11.8377 19.7692 11.9528 19.1616C12.0679 18.554 11.9682 17.9252 11.6708 17.383C11.3734 16.8408 10.8968 16.4188 10.3226 16.1892C10.2526 15.2321 9.82293 14.3369 9.12002 13.6834C8.41711 13.03 7.49299 12.6667 6.53326 12.6666H2.05326C2.25292 12.5015 2.47518 12.3659 2.71326 12.2639C2.57582 11.774 2.49617 11.2697 2.47593 10.7612C2.43193 9.78123 2.5786 8.76123 2.86926 7.85323C3.15726 6.95989 3.61326 6.08923 4.25326 5.48789C4.65473 5.0967 5.16335 4.83357 5.7146 4.73189C5.97993 3.61189 6.65593 2.68656 7.5186 2.01589C8.6266 1.15189 10.0786 0.674561 11.5186 0.674561H11.5199ZM14.9999 20.6666H17.1999C18.2078 20.6666 19.1743 20.2662 19.8869 19.5536C20.5996 18.8409 20.9999 17.8744 20.9999 16.8666V14.4732C21.5736 14.2412 22.0487 13.8168 22.3439 13.2728C22.639 12.7289 22.7357 12.0992 22.6175 11.4918C22.4993 10.8843 22.1735 10.3369 21.6959 9.94331C21.2184 9.54973 20.6188 9.33449 19.9999 9.33449C19.3811 9.33449 18.7815 9.54973 18.3039 9.94331C17.8264 10.3369 17.5006 10.8843 17.3824 11.4918C17.2642 12.0992 17.3609 12.7289 17.656 13.2728C17.9511 13.8168 18.4262 14.2412 18.9999 14.4732V16.8666C18.9999 17.3439 18.8103 17.8018 18.4727 18.1394C18.1352 18.4769 17.6773 18.6666 17.1999 18.6666H14.9999V2.55589C14.9999 1.61323 15.5373 0.674561 16.4799 0.674561C17.9226 0.674561 19.3733 1.15189 20.4813 2.01589C21.3439 2.68656 22.0199 3.61323 22.2853 4.73189C22.8453 4.82523 23.3439 5.11056 23.7466 5.48789C24.3866 6.08923 24.8426 6.95856 25.1306 7.85323C25.4213 8.76123 25.5679 9.78123 25.5239 10.7612C25.5013 11.2626 25.4279 11.7746 25.2866 12.2639L25.3746 12.3039C25.8679 12.5359 26.2679 12.8999 26.5666 13.3839C27.1333 14.2972 27.3333 15.6119 27.3333 17.2879C27.3333 19.2146 26.5973 20.5226 25.6506 21.3346C25.1575 21.7574 24.5804 22.071 23.9573 22.2546C23.7308 23.2966 23.2657 24.2719 22.5986 25.1039C21.6346 26.3092 20.1373 27.3279 18.1226 27.3279C17.398 27.3246 16.6847 27.1477 16.0426 26.8119C15.3359 26.4492 14.9999 25.6586 14.9999 24.8639V20.6666ZM8.6666 9.33323C8.6666 9.15642 8.73683 8.98685 8.86186 8.86182C8.98688 8.7368 9.15645 8.66656 9.33326 8.66656C9.51008 8.66656 9.67965 8.7368 9.80467 8.86182C9.92969 8.98685 9.99993 9.15642 9.99993 9.33323C9.99993 9.51004 9.92969 9.67961 9.80467 9.80463C9.67965 9.92966 9.51008 9.99989 9.33326 9.99989C9.15645 9.99989 8.98688 9.92966 8.86186 9.80463C8.73683 9.67961 8.6666 9.51004 8.6666 9.33323ZM9.33326 17.9999C9.15645 17.9999 8.98688 18.0701 8.86186 18.1952C8.73683 18.3202 8.6666 18.4897 8.6666 18.6666C8.6666 18.8434 8.73683 19.0129 8.86186 19.138C8.98688 19.263 9.15645 19.3332 9.33326 19.3332C9.51008 19.3332 9.67965 19.263 9.80467 19.138C9.92969 19.0129 9.99993 18.8434 9.99993 18.6666C9.99993 18.4897 9.92969 18.3202 9.80467 18.1952C9.67965 18.0701 9.51008 17.9999 9.33326 17.9999ZM19.3333 11.9999C19.3333 12.1767 19.4035 12.3463 19.5285 12.4713C19.6536 12.5963 19.8231 12.6666 19.9999 12.6666C20.1767 12.6666 20.3463 12.5963 20.4713 12.4713C20.5964 12.3463 20.6666 12.1767 20.6666 11.9999C20.6666 11.8231 20.5964 11.6535 20.4713 11.5285C20.3463 11.4035 20.1767 11.3332 19.9999 11.3332C19.8231 11.3332 19.6536 11.4035 19.5285 11.5285C19.4035 11.6535 19.3333 11.8231 19.3333 11.9999Z" fill="#1C252E"/>
</svg>
