<svg width="32" height="40" viewBox="0 0 32 40" fill="none" xmlns="http://www.w3.org/2000/svg">
<path d="M30.7778 19.5554C28.7778 17.4443 26.1111 15.9999 23.3333 15.4443C22.1111 15.111 20.8889 14.8888 19.6667 14.7777C22.7778 11.111 22.2222 5.55544 18.5556 2.44433C14.8889 -0.666784 9.33334 -0.111229 6.22223 3.55544C3.11112 7.22211 3.66668 12.7777 7.33334 15.8888C8.00001 16.4443 8.66667 16.8888 9.33334 17.111V19.5554L7.55556 17.8888C6.00001 16.3332 3.44445 16.3332 1.77779 17.8888C0.222231 19.4443 0.111119 21.8888 1.66667 23.4443L6.77779 29.4443C7.00001 30.9999 7.55556 32.4443 8.33334 33.7777C8.8889 34.7777 9.66667 35.7777 10.4445 36.5554V38.6665C10.4445 39.3332 10.8889 39.7777 11.5556 39.7777H26.6667C27.2222 39.7777 27.7778 39.2221 27.7778 38.6665V35.7777C29.8889 33.2221 31 29.9999 31 26.7777V20.3332C31.1111 19.8888 31 19.6666 30.7778 19.5554ZM6.33334 9.11099C6.33334 5.44433 9.33334 2.55544 13 2.66655C16.6667 2.66655 19.5556 5.66655 19.4445 9.33322C19.4445 11.3332 18.5556 13.111 17 14.3332V8.77766C16.9433 7.81474 16.5203 6.91 15.8179 6.2489C15.1155 5.5878 14.1868 5.22043 13.2222 5.2221C11.2222 5.11099 9.44445 6.77766 9.44445 8.77766V14.5554C7.55556 13.4443 6.44445 11.3332 6.33334 9.11099ZM28.8889 26.6666C29 29.5554 28 32.3332 26.1111 34.5554C25.8889 34.7777 25.6667 34.9999 25.6667 35.3332V37.6665H12.7778V36.111C12.7778 35.7777 12.5556 35.4443 12.3333 35.2221C11.5556 34.5554 10.8889 33.7777 10.3333 32.7777C9.66667 31.6666 9.22223 30.3332 9.00001 28.9999C9.00001 28.7777 8.8889 28.5554 8.77779 28.3332L3.44445 21.9999C3.11112 21.6665 2.8889 21.2221 2.8889 20.6666C2.8889 20.2221 3.11112 19.6665 3.44445 19.3332C4.22223 18.6665 5.33334 18.6665 6.11112 19.3332L9.33334 22.5554V25.8888L11.4445 24.7777V8.77766C11.5556 7.99988 12.2222 7.33322 13.1111 7.44433C13.8889 7.44433 14.6667 7.99988 14.6667 8.77766V21.5554L16.8889 21.9999V16.8888C17 16.7777 17.1111 16.7777 17.2222 16.6665C18 16.6665 18.7778 16.7777 19.5556 16.8888V22.5554L21.3333 22.8888V17.111L22.6667 17.4443C23.2222 17.5554 23.7778 17.7777 24.3333 17.9999V23.5554L26.1111 23.8888V18.7777C27.1111 19.2221 28 19.8888 28.7778 20.6666L28.8889 26.6666Z" fill="#1C252E"/>
</svg>
