<svg width="208" height="24" viewBox="0 0 208 24" fill="none" xmlns="http://www.w3.org/2000/svg">
<path d="M13.036 23.384C11.2653 23.384 9.62267 23.096 8.108 22.52C6.61467 21.944 5.31333 21.1333 4.204 20.088C3.116 19.0427 2.26267 17.816 1.644 16.408C1.04667 15 0.748 13.464 0.748 11.8C0.748 10.136 1.04667 8.6 1.644 7.192C2.26267 5.784 3.12667 4.55733 4.236 3.512C5.34533 2.46667 6.64667 1.656 8.14 1.08C9.63333 0.503999 11.2547 0.216 13.004 0.216C14.7747 0.216 16.396 0.503999 17.868 1.08C19.3613 1.656 20.652 2.46667 21.74 3.512C22.8493 4.55733 23.7133 5.784 24.332 7.192C24.9507 8.57867 25.26 10.1147 25.26 11.8C25.26 13.464 24.9507 15.0107 24.332 16.44C23.7133 17.848 22.8493 19.0747 21.74 20.12C20.652 21.144 19.3613 21.944 17.868 22.52C16.396 23.096 14.7853 23.384 13.036 23.384ZM13.004 18.968C14.0067 18.968 14.924 18.7973 15.756 18.456C16.6093 18.1147 17.356 17.624 17.996 16.984C18.636 16.344 19.1267 15.5867 19.468 14.712C19.8307 13.8373 20.012 12.8667 20.012 11.8C20.012 10.7333 19.8307 9.76267 19.468 8.888C19.1267 8.01333 18.636 7.256 17.996 6.616C17.3773 5.976 16.6413 5.48533 15.788 5.144C14.9347 4.80267 14.0067 4.632 13.004 4.632C12.0013 4.632 11.0733 4.80267 10.22 5.144C9.388 5.48533 8.652 5.976 8.012 6.616C7.372 7.256 6.87067 8.01333 6.508 8.888C6.16667 9.76267 5.996 10.7333 5.996 11.8C5.996 12.8453 6.16667 13.816 6.508 14.712C6.87067 15.5867 7.36133 16.344 7.98 16.984C8.62 17.624 9.36667 18.1147 10.22 18.456C11.0733 18.7973 12.0013 18.968 13.004 18.968ZM29.156 23V0.599998H38.852C40.8573 0.599998 42.5853 0.930665 44.036 1.592C45.4867 2.232 46.6067 3.16 47.396 4.376C48.1853 5.592 48.58 7.04267 48.58 8.728C48.58 10.392 48.1853 11.832 47.396 13.048C46.6067 14.264 45.4867 15.2027 44.036 15.864C42.5853 16.504 40.8573 16.824 38.852 16.824H32.036L34.34 14.488V23H29.156ZM34.34 15.064L32.036 12.6H38.564C40.164 12.6 41.3587 12.2587 42.148 11.576C42.9373 10.8933 43.332 9.944 43.332 8.728C43.332 7.49067 42.9373 6.53067 42.148 5.848C41.3587 5.16533 40.164 4.824 38.564 4.824H32.036L34.34 2.36V15.064ZM62.108 23.384C58.9293 23.384 56.444 22.4987 54.652 20.728C52.86 18.9573 51.964 16.4293 51.964 13.144V0.599998H57.148V12.952C57.148 15.0853 57.5853 16.6213 58.46 17.56C59.3347 18.4987 60.5613 18.968 62.14 18.968C63.7187 18.968 64.9453 18.4987 65.82 17.56C66.6947 16.6213 67.132 15.0853 67.132 12.952V0.599998H72.252V13.144C72.252 16.4293 71.356 18.9573 69.564 20.728C67.772 22.4987 65.2867 23.384 62.108 23.384ZM77.3748 23V0.599998H82.5588V18.776H93.7908V23H77.3748ZM101.455 9.624H112.239V13.656H101.455V9.624ZM101.839 18.84H114.031V23H96.6873V0.599998H113.615V4.76H101.839V18.84ZM118.156 23V0.599998H122.444L135.66 16.728H133.58V0.599998H138.7V23H134.444L121.196 6.872H123.276V23H118.156ZM154.72 23.384C152.992 23.384 151.381 23.1067 149.888 22.552C148.416 21.976 147.136 21.1653 146.048 20.12C144.96 19.0747 144.106 17.848 143.488 16.44C142.89 15.032 142.592 13.4853 142.592 11.8C142.592 10.1147 142.89 8.568 143.488 7.16C144.106 5.752 144.96 4.52533 146.048 3.48C147.157 2.43467 148.448 1.63467 149.92 1.08C151.392 0.503999 153.002 0.216 154.752 0.216C156.693 0.216 158.442 0.557333 160 1.24C161.578 1.90133 162.901 2.88267 163.968 4.184L160.64 7.256C159.872 6.38133 159.018 5.73067 158.08 5.304C157.141 4.856 156.117 4.632 155.008 4.632C153.962 4.632 153.002 4.80267 152.128 5.144C151.253 5.48533 150.496 5.976 149.856 6.616C149.216 7.256 148.714 8.01333 148.352 8.888C148.01 9.76267 147.84 10.7333 147.84 11.8C147.84 12.8667 148.01 13.8373 148.352 14.712C148.714 15.5867 149.216 16.344 149.856 16.984C150.496 17.624 151.253 18.1147 152.128 18.456C153.002 18.7973 153.962 18.968 155.008 18.968C156.117 18.968 157.141 18.7547 158.08 18.328C159.018 17.88 159.872 17.208 160.64 16.312L163.968 19.384C162.901 20.6853 161.578 21.6773 160 22.36C158.442 23.0427 156.682 23.384 154.72 23.384ZM177.72 23.384C175.992 23.384 174.381 23.1067 172.888 22.552C171.416 21.976 170.136 21.1653 169.048 20.12C167.96 19.0747 167.106 17.848 166.488 16.44C165.89 15.032 165.592 13.4853 165.592 11.8C165.592 10.1147 165.89 8.568 166.488 7.16C167.106 5.752 167.96 4.52533 169.048 3.48C170.157 2.43467 171.448 1.63467 172.92 1.08C174.392 0.503999 176.002 0.216 177.752 0.216C179.693 0.216 181.442 0.557333 183 1.24C184.578 1.90133 185.901 2.88267 186.968 4.184L183.64 7.256C182.872 6.38133 182.018 5.73067 181.08 5.304C180.141 4.856 179.117 4.632 178.008 4.632C176.962 4.632 176.002 4.80267 175.128 5.144C174.253 5.48533 173.496 5.976 172.856 6.616C172.216 7.256 171.714 8.01333 171.352 8.888C171.01 9.76267 170.84 10.7333 170.84 11.8C170.84 12.8667 171.01 13.8373 171.352 14.712C171.714 15.5867 172.216 16.344 172.856 16.984C173.496 17.624 174.253 18.1147 175.128 18.456C176.002 18.7973 176.962 18.968 178.008 18.968C179.117 18.968 180.141 18.7547 181.08 18.328C182.018 17.88 182.872 17.208 183.64 16.312L186.968 19.384C185.901 20.6853 184.578 21.6773 183 22.36C181.442 23.0427 179.682 23.384 177.72 23.384ZM195.237 9.624H206.021V13.656H195.237V9.624ZM195.621 18.84H207.812V23H190.469V0.599998H207.397V4.76H195.621V18.84Z" fill="#1C252E"/>
</svg>
