<svg width="208" height="24" viewBox="0 0 208 24" fill="none" xmlns="http://www.w3.org/2000/svg">
<path d="M12.536 23.384C10.7653 23.384 9.12267 23.096 7.608 22.52C6.11467 21.944 4.81333 21.1333 3.704 20.088C2.616 19.0427 1.76267 17.816 1.144 16.408C0.546667 15 0.248 13.464 0.248 11.8C0.248 10.136 0.546667 8.6 1.144 7.192C1.76267 5.784 2.62667 4.55733 3.736 3.512C4.84533 2.46667 6.14667 1.656 7.64 1.08C9.13333 0.503999 10.7547 0.216 12.504 0.216C14.2747 0.216 15.896 0.503999 17.368 1.08C18.8613 1.656 20.152 2.46667 21.24 3.512C22.3493 4.55733 23.2133 5.784 23.832 7.192C24.4507 8.57867 24.76 10.1147 24.76 11.8C24.76 13.464 24.4507 15.0107 23.832 16.44C23.2133 17.848 22.3493 19.0747 21.24 20.12C20.152 21.144 18.8613 21.944 17.368 22.52C15.896 23.096 14.2853 23.384 12.536 23.384ZM12.504 18.968C13.5067 18.968 14.424 18.7973 15.256 18.456C16.1093 18.1147 16.856 17.624 17.496 16.984C18.136 16.344 18.6267 15.5867 18.968 14.712C19.3307 13.8373 19.512 12.8667 19.512 11.8C19.512 10.7333 19.3307 9.76267 18.968 8.888C18.6267 8.01333 18.136 7.256 17.496 6.616C16.8773 5.976 16.1413 5.48533 15.288 5.144C14.4347 4.80267 13.5067 4.632 12.504 4.632C11.5013 4.632 10.5733 4.80267 9.72 5.144C8.888 5.48533 8.152 5.976 7.512 6.616C6.872 7.256 6.37067 8.01333 6.008 8.888C5.66667 9.76267 5.496 10.7333 5.496 11.8C5.496 12.8453 5.66667 13.816 6.008 14.712C6.37067 15.5867 6.86133 16.344 7.48 16.984C8.12 17.624 8.86667 18.1147 9.72 18.456C10.5733 18.7973 11.5013 18.968 12.504 18.968ZM28.656 23V0.599998H38.352C40.3573 0.599998 42.0853 0.930665 43.536 1.592C44.9867 2.232 46.1067 3.16 46.896 4.376C47.6853 5.592 48.08 7.04267 48.08 8.728C48.08 10.392 47.6853 11.832 46.896 13.048C46.1067 14.264 44.9867 15.2027 43.536 15.864C42.0853 16.504 40.3573 16.824 38.352 16.824H31.536L33.84 14.488V23H28.656ZM33.84 15.064L31.536 12.6H38.064C39.664 12.6 40.8587 12.2587 41.648 11.576C42.4373 10.8933 42.832 9.944 42.832 8.728C42.832 7.49067 42.4373 6.53067 41.648 5.848C40.8587 5.16533 39.664 4.824 38.064 4.824H31.536L33.84 2.36V15.064ZM61.608 23.384C58.4293 23.384 55.944 22.4987 54.152 20.728C52.36 18.9573 51.464 16.4293 51.464 13.144V0.599998H56.648V12.952C56.648 15.0853 57.0853 16.6213 57.96 17.56C58.8347 18.4987 60.0613 18.968 61.64 18.968C63.2187 18.968 64.4453 18.4987 65.32 17.56C66.1947 16.6213 66.632 15.0853 66.632 12.952V0.599998H71.752V13.144C71.752 16.4293 70.856 18.9573 69.064 20.728C67.272 22.4987 64.7867 23.384 61.608 23.384ZM76.8748 23V0.599998H82.0588V18.776H93.2908V23H76.8748ZM100.955 9.624H111.739V13.656H100.955V9.624ZM101.339 18.84H113.531V23H96.1873V0.599998H113.115V4.76H101.339V18.84ZM117.656 23V0.599998H121.944L135.16 16.728H133.08V0.599998H138.2V23H133.944L120.696 6.872H122.776V23H117.656ZM154.22 23.384C152.492 23.384 150.881 23.1067 149.388 22.552C147.916 21.976 146.636 21.1653 145.548 20.12C144.46 19.0747 143.606 17.848 142.988 16.44C142.39 15.032 142.092 13.4853 142.092 11.8C142.092 10.1147 142.39 8.568 142.988 7.16C143.606 5.752 144.46 4.52533 145.548 3.48C146.657 2.43467 147.948 1.63467 149.42 1.08C150.892 0.503999 152.502 0.216 154.252 0.216C156.193 0.216 157.942 0.557333 159.5 1.24C161.078 1.90133 162.401 2.88267 163.468 4.184L160.14 7.256C159.372 6.38133 158.518 5.73067 157.58 5.304C156.641 4.856 155.617 4.632 154.508 4.632C153.462 4.632 152.502 4.80267 151.628 5.144C150.753 5.48533 149.996 5.976 149.356 6.616C148.716 7.256 148.214 8.01333 147.852 8.888C147.51 9.76267 147.34 10.7333 147.34 11.8C147.34 12.8667 147.51 13.8373 147.852 14.712C148.214 15.5867 148.716 16.344 149.356 16.984C149.996 17.624 150.753 18.1147 151.628 18.456C152.502 18.7973 153.462 18.968 154.508 18.968C155.617 18.968 156.641 18.7547 157.58 18.328C158.518 17.88 159.372 17.208 160.14 16.312L163.468 19.384C162.401 20.6853 161.078 21.6773 159.5 22.36C157.942 23.0427 156.182 23.384 154.22 23.384ZM177.22 23.384C175.492 23.384 173.881 23.1067 172.388 22.552C170.916 21.976 169.636 21.1653 168.548 20.12C167.46 19.0747 166.606 17.848 165.988 16.44C165.39 15.032 165.092 13.4853 165.092 11.8C165.092 10.1147 165.39 8.568 165.988 7.16C166.606 5.752 167.46 4.52533 168.548 3.48C169.657 2.43467 170.948 1.63467 172.42 1.08C173.892 0.503999 175.502 0.216 177.252 0.216C179.193 0.216 180.942 0.557333 182.5 1.24C184.078 1.90133 185.401 2.88267 186.468 4.184L183.14 7.256C182.372 6.38133 181.518 5.73067 180.58 5.304C179.641 4.856 178.617 4.632 177.508 4.632C176.462 4.632 175.502 4.80267 174.628 5.144C173.753 5.48533 172.996 5.976 172.356 6.616C171.716 7.256 171.214 8.01333 170.852 8.888C170.51 9.76267 170.34 10.7333 170.34 11.8C170.34 12.8667 170.51 13.8373 170.852 14.712C171.214 15.5867 171.716 16.344 172.356 16.984C172.996 17.624 173.753 18.1147 174.628 18.456C175.502 18.7973 176.462 18.968 177.508 18.968C178.617 18.968 179.641 18.7547 180.58 18.328C181.518 17.88 182.372 17.208 183.14 16.312L186.468 19.384C185.401 20.6853 184.078 21.6773 182.5 22.36C180.942 23.0427 179.182 23.384 177.22 23.384ZM194.737 9.624H205.521V13.656H194.737V9.624ZM195.121 18.84H207.312V23H189.969V0.599998H206.897V4.76H195.121V18.84Z" fill="#FCFCF0"/>
</svg>
