<svg width="32" height="22" viewBox="0 0 32 22" fill="none" xmlns="http://www.w3.org/2000/svg">
<path d="M1.77778 21.6666C1.27408 21.6666 0.851561 21.496 0.510228 21.1546C0.168895 20.8133 -0.00117903 20.3914 6.15148e-06 19.8889C6.15148e-06 19.3852 0.170673 18.9626 0.512006 18.6213C0.853339 18.28 1.27526 18.1099 1.77778 18.1111H30.2222C30.7259 18.1111 31.1484 18.2818 31.4898 18.6231C31.8311 18.9644 32.0012 19.3863 32 19.8889C32 20.3926 31.8293 20.8151 31.488 21.1564C31.1467 21.4978 30.7247 21.6678 30.2222 21.6666H1.77778ZM1.77778 12.7778C1.27408 12.7778 0.851561 12.6071 0.510228 12.2658C0.168895 11.9244 -0.00117903 11.5025 6.15148e-06 11C6.15148e-06 10.4963 0.170673 10.0738 0.512006 9.73242C0.853339 9.39109 1.27526 9.22102 1.77778 9.2222H30.2222C30.7259 9.2222 31.1484 9.39287 31.4898 9.7342C31.8311 10.0755 32.0012 10.4975 32 11C32 11.5037 31.8293 11.9262 31.488 12.2675C31.1467 12.6089 30.7247 12.7789 30.2222 12.7778H1.77778ZM1.77778 3.88887C1.27408 3.88887 0.851561 3.71821 0.510228 3.37687C0.168895 3.03554 -0.00117903 2.61361 6.15148e-06 2.1111C6.15148e-06 1.60739 0.170673 1.18487 0.512006 0.843541C0.853339 0.502208 1.27526 0.332134 1.77778 0.333319H30.2222C30.7259 0.333319 31.1484 0.503986 31.4898 0.845319C31.8311 1.18665 32.0012 1.60858 32 2.1111C32 2.6148 31.8293 3.03732 31.488 3.37865C31.1467 3.71998 30.7247 3.89006 30.2222 3.88887H1.77778Z" fill="#1C252E"/>
</svg>
