<svg width="61" height="61" viewBox="0 0 61 61" fill="none" xmlns="http://www.w3.org/2000/svg">
<path d="M14.6002 28.5497C10.4258 28.5497 6.2496 28.5515 2.07519 28.5497C0.851628 28.5497 0.440796 28.1317 0.440796 26.8921C0.440796 18.5397 0.440796 10.1891 0.440796 1.83671C0.440796 0.573848 0.771248 0.230893 2.01089 0.230893C10.4061 0.229107 18.8014 0.229107 27.1949 0.230893C28.3452 0.230893 28.7703 0.654228 28.7703 1.80634C28.7739 10.2034 28.7739 18.5986 28.7703 26.9957C28.7703 28.171 28.3791 28.5479 27.1913 28.5479C22.9955 28.5515 18.7978 28.5497 14.6002 28.5497ZM2.88078 2.65123C2.88078 10.4981 2.88078 18.2968 2.88078 26.1151C10.7223 26.1151 18.521 26.1151 26.3518 26.1151C26.3518 18.2807 26.3518 10.482 26.3518 2.65123C18.5192 2.65123 10.7348 2.65123 2.88078 2.65123Z" fill="#1C252E"/>
<path d="M46.4865 60.0659C42.3353 60.0659 38.1824 60.0676 34.0312 60.0659C32.7522 60.0659 32.3896 59.7104 32.3896 58.444C32.3879 50.0951 32.3879 41.7445 32.3896 33.3957C32.3896 32.1561 32.7987 31.7488 34.033 31.7488C42.3818 31.747 50.7288 31.747 59.0776 31.7488C60.3441 31.7488 60.7227 32.1221 60.7227 33.3743C60.7227 41.7231 60.7227 50.0737 60.7227 58.4225C60.7227 59.6532 60.3119 60.0658 59.0776 60.0676C54.88 60.0658 50.6842 60.0659 46.4865 60.0659ZM34.8028 57.6241C42.6533 57.6241 50.4662 57.6241 58.272 57.6241C58.272 49.7718 58.272 41.9732 58.272 34.196C50.4198 34.196 42.6211 34.196 34.8028 34.196C34.8028 42.0268 34.8028 49.8058 34.8028 57.6241Z" fill="#1C252E"/>
<path d="M0.673117 46.1261C0.673117 43.7594 0.665971 41.3926 0.674902 39.0259C0.689192 34.9622 3.4757 32.1722 7.53936 32.165C12.2496 32.1561 16.9599 32.1561 21.6702 32.165C25.7517 32.1722 28.5597 34.9908 28.5632 39.0795C28.5686 43.8576 28.5793 48.6358 28.5597 53.4139C28.5454 56.7149 26.3555 59.3442 23.151 59.9587C22.8241 60.0212 22.4865 60.048 22.1525 60.048C17.1296 60.0533 12.1067 60.0944 7.08388 60.0373C3.88118 60.0015 1.34116 57.7634 0.767786 54.6232C0.680261 54.1445 0.678475 53.6461 0.676688 53.1567C0.667757 50.815 0.673117 48.4697 0.673117 46.1261ZM14.6021 34.5657C12.2139 34.5657 9.82395 34.5621 7.43576 34.5657C4.87789 34.5693 3.08095 36.2572 3.0613 38.7937C3.02379 43.6826 3.02379 48.5733 3.0613 53.4622C3.08095 55.945 4.83859 57.658 7.31787 57.6705C12.1853 57.6919 17.051 57.6937 21.9185 57.6705C24.412 57.658 26.159 55.87 26.1625 53.38C26.1715 48.5572 26.1715 43.7344 26.1625 38.9116C26.159 36.3376 24.3924 34.5728 21.8327 34.5675C19.4231 34.5603 17.0117 34.5657 14.6021 34.5657Z" fill="#1C252E"/>
<path d="M46.4594 0.332697C54.2616 0.341628 60.4866 6.57912 60.4866 14.3867C60.4866 22.23 54.2402 28.4568 46.3951 28.4318C38.5821 28.4068 32.3589 22.1568 32.3928 14.3653C32.4286 6.56126 38.6803 0.32198 46.4594 0.332697ZM46.2754 26.0508C52.7522 26.1043 57.9412 20.9904 58.0162 14.4832C58.0913 8.00096 52.9184 2.75482 46.4076 2.70837C39.9307 2.66372 34.7524 7.77232 34.6756 14.2831C34.6006 20.7885 39.7342 25.9972 46.2754 26.0508Z" fill="#1C252E"/>
</svg>
