<svg width="15" height="22" viewBox="0 0 15 22" fill="none" xmlns="http://www.w3.org/2000/svg">
<path d="M5.5 19H9.5V18H5.5V19ZM2.5 22C1.95 22 1.479 21.804 1.087 21.412C0.695002 21.02 0.499335 20.5493 0.500002 20V2C0.500002 1.45 0.696001 0.979002 1.088 0.587002C1.48 0.195002 1.95067 -0.000664969 2.5 1.69779e-06H12.5C13.05 1.69779e-06 13.521 0.196002 13.913 0.588002C14.305 0.980002 14.5007 1.45067 14.5 2V20C14.5 20.55 14.304 21.021 13.912 21.413C13.52 21.805 13.0493 22.0007 12.5 22H2.5ZM2.5 17V20H12.5V17H2.5ZM2.5 15H12.5V5H2.5V15ZM2.5 3H12.5V2H2.5V3Z" fill="#FCFCF0"/>
</svg>
