<svg width="61" height="61" viewBox="0 0 61 61" fill="none" xmlns="http://www.w3.org/2000/svg">
<path d="M23.1041 43.8125L43.8125 30.5L23.1041 17.1875V43.8125ZM30.5 60.0833C26.4076 60.0833 22.5618 59.3062 18.9625 57.7521C15.3632 56.198 12.2323 54.0907 9.56978 51.4302C6.90728 48.7677 4.79996 45.6368 3.24782 42.0375C1.69568 38.4382 0.918629 34.5923 0.916656 30.5C0.916656 26.4076 1.69371 22.5618 3.24782 18.9625C4.80193 15.3632 6.90925 12.2323 9.56978 9.56979C12.2323 6.90729 15.3632 4.79998 18.9625 3.24784C22.5618 1.6957 26.4076 0.918644 30.5 0.916672C34.5923 0.916672 38.4382 1.69373 42.0375 3.24784C45.6368 4.80195 48.7677 6.90927 51.4302 9.56979C54.0927 12.2323 56.201 15.3632 57.7551 18.9625C59.3092 22.5618 60.0853 26.4076 60.0833 30.5C60.0833 34.5923 59.3062 38.4382 57.7521 42.0375C56.198 45.6368 54.0907 48.7677 51.4302 51.4302C48.7677 54.0927 45.6368 56.201 42.0375 57.7551C38.4382 59.3092 34.5923 60.0853 30.5 60.0833ZM30.5 54.1666C37.1069 54.1666 42.7031 51.8739 47.2885 47.2885C51.8739 42.7031 54.1666 37.1069 54.1666 30.5C54.1666 23.893 51.8739 18.2969 47.2885 13.7115C42.7031 9.12604 37.1069 6.83333 30.5 6.83333C23.893 6.83333 18.2969 9.12604 13.7114 13.7115C9.12603 18.2969 6.83332 23.893 6.83332 30.5C6.83332 37.1069 9.12603 42.7031 13.7114 47.2885C18.2969 51.8739 23.893 54.1666 30.5 54.1666Z" fill="#1C252E"/>
</svg>
