<svg width="84" height="51" viewBox="0 0 84 51" fill="none" xmlns="http://www.w3.org/2000/svg">
<path d="M11.9167 14.8526C11.7229 15.046 11.5691 15.2757 11.4642 15.5286C11.3593 15.7816 11.3053 16.0527 11.3053 16.3265C11.3053 16.6003 11.3593 16.8714 11.4642 17.1243C11.5691 17.3772 11.7229 17.607 11.9167 17.8004L20.0284 25.9121L11.9167 34.0239C11.7231 34.2174 11.5696 34.4472 11.4649 34.7001C11.3601 34.953 11.3062 35.2241 11.3062 35.4978C11.3062 35.7715 11.3601 36.0426 11.4649 36.2955C11.5696 36.5484 11.7231 36.7782 11.9167 36.9717C12.1103 37.1653 12.34 37.3188 12.5929 37.4236C12.8458 37.5283 13.1169 37.5822 13.3906 37.5822C13.6643 37.5822 13.9354 37.5283 14.1883 37.4236C14.4412 37.3188 14.671 37.1653 14.8645 36.9717L24.4606 27.3756C24.6544 27.1822 24.8082 26.9524 24.9131 26.6995C25.018 26.4466 25.072 26.1755 25.072 25.9017C25.072 25.6279 25.018 25.3568 24.9131 25.1038C24.8082 24.8509 24.6544 24.6212 24.4606 24.4278L14.8854 14.8526C14.0701 14.0372 12.7321 14.0372 11.9167 14.8526Z" fill="#1C252E"/>
<path d="M25.6942 14.8526C25.5004 15.046 25.3466 15.2757 25.2417 15.5287C25.1368 15.7816 25.0828 16.0527 25.0828 16.3265C25.0828 16.6003 25.1368 16.8714 25.2417 17.1243C25.3466 17.3773 25.5004 17.607 25.6942 17.8004L33.8059 25.9122L25.6942 34.0239C25.3033 34.4148 25.0836 34.945 25.0836 35.4978C25.0836 36.0506 25.3033 36.5808 25.6942 36.9717C26.0851 37.3626 26.6153 37.5822 27.1681 37.5822C27.7209 37.5822 28.2511 37.3626 28.642 36.9717L38.2381 27.3756C38.4319 27.1822 38.5857 26.9525 38.6906 26.6995C38.7955 26.4466 38.8495 26.1755 38.8495 25.9017C38.8495 25.6279 38.7955 25.3568 38.6906 25.1039C38.5857 24.8509 38.4319 24.6212 38.2381 24.4278L28.642 14.8317C27.8475 14.0372 26.5095 14.0372 25.6942 14.8526Z" fill="#1C252E"/>
<path d="M71.7095 36.9717C71.9033 36.7783 72.0571 36.5486 72.162 36.2957C72.2669 36.0428 72.3209 35.7716 72.3209 35.4978C72.3209 35.224 72.2669 34.9529 72.162 34.7C72.0571 34.4471 71.9033 34.2173 71.7095 34.0239L63.5978 25.9122L71.7095 17.8004C71.9031 17.6069 72.0566 17.3771 72.1614 17.1242C72.2661 16.8713 72.32 16.6002 72.32 16.3265C72.32 16.0528 72.2661 15.7817 72.1614 15.5288C72.0566 15.2759 71.9031 15.0462 71.7095 14.8526C71.516 14.659 71.2862 14.5055 71.0333 14.4008C70.7804 14.296 70.5093 14.2421 70.2356 14.2421C69.9619 14.2421 69.6908 14.296 69.4379 14.4008C69.185 14.5055 68.9553 14.659 68.7617 14.8526L59.1656 24.4487C58.9718 24.6421 58.818 24.8719 58.7131 25.1248C58.6082 25.3777 58.5542 25.6488 58.5542 25.9226C58.5542 26.1964 58.6082 26.4676 58.7131 26.7205C58.818 26.9734 58.9718 27.2031 59.1656 27.3965L68.7408 36.9717C69.5561 37.7871 70.8942 37.7871 71.7095 36.9717Z" fill="#1C252E"/>
<path d="M57.9321 36.9717C58.1259 36.7783 58.2796 36.5486 58.3845 36.2957C58.4895 36.0427 58.5435 35.7716 58.5435 35.4978C58.5435 35.224 58.4895 34.9529 58.3845 34.7C58.2796 34.4471 58.1259 34.2173 57.9321 34.0239L49.8203 25.9122L57.9321 17.8004C58.323 17.4095 58.5426 16.8793 58.5426 16.3265C58.5426 15.7737 58.323 15.2435 57.9321 14.8526C57.5412 14.4617 57.011 14.2421 56.4581 14.2421C55.9053 14.2421 55.3751 14.4617 54.9842 14.8526L45.3881 24.4487C45.1943 24.6421 45.0405 24.8719 44.9356 25.1248C44.8307 25.3777 44.7767 25.6488 44.7767 25.9226C44.7767 26.1964 44.8307 26.4675 44.9356 26.7205C45.0405 26.9734 45.1943 27.2031 45.3881 27.3965L54.9842 36.9926C55.7787 37.7871 57.1167 37.7871 57.9321 36.9717Z" fill="#1C252E"/>
</svg>
