<svg width="22" height="18" viewBox="0 0 22 18" fill="none" xmlns="http://www.w3.org/2000/svg">
<path d="M21.419 2.5C20.649 2.85 19.819 3.08 18.959 3.19C19.839 2.66 20.519 1.82 20.839 0.81C20.009 1.31 19.089 1.66 18.119 1.86C17.329 1 16.219 0.5 14.959 0.5C12.609 0.5 10.689 2.42 10.689 4.79C10.689 5.13 10.729 5.46 10.799 5.77C7.23902 5.59 4.06902 3.88 1.95902 1.29C1.58902 1.92 1.37902 2.66 1.37902 3.44C1.37902 4.93 2.12902 6.25 3.28902 7C2.57902 7 1.91902 6.8 1.33902 6.5V6.53C1.33902 8.61 2.81902 10.35 4.77902 10.74C4.14975 10.9122 3.48912 10.9362 2.84902 10.81C3.12063 11.6625 3.65256 12.4084 4.37004 12.9429C5.08752 13.4775 5.95447 13.7737 6.84902 13.79C5.33265 14.9904 3.45302 15.6393 1.51902 15.63C1.17902 15.63 0.839023 15.61 0.499023 15.57C2.39902 16.79 4.65902 17.5 7.07902 17.5C14.959 17.5 19.289 10.96 19.289 5.29C19.289 5.1 19.289 4.92 19.279 4.73C20.119 4.13 20.839 3.37 21.419 2.5Z" fill="#FCFCF0"/>
</svg>
