<svg width="58" height="55" viewBox="0 0 58 55" fill="none" xmlns="http://www.w3.org/2000/svg">
<path d="M57.9375 49.1594V54.3341H39.6889V49.1594H46.102L29.2612 9.34029C28.7659 8.12424 27.9577 7.14105 26.8106 6.36485C25.6636 5.58865 24.4123 5.17468 23.0306 5.17468C21.1797 5.17468 19.5634 5.87326 18.2077 7.21867C16.8521 8.56409 16.2265 10.1424 16.2265 12.0052V20.6987H18.8334C24.5947 20.6987 29.2612 25.33 29.2612 31.0481V54.3341H18.8334C20.4236 52.1607 21.4404 49.4958 21.4404 46.5721C21.4404 39.431 15.6008 33.6354 8.40566 33.6354C6.55473 33.6354 4.78201 34.0235 3.19178 34.7221V20.6987H11.0126V12.0052C11.0126 9.83189 11.6122 7.76201 12.655 6.00262C13.7238 4.19149 15.1576 2.74258 17.0086 1.63002C18.8334 0.543341 20.8408 0 23.0306 0C25.4811 0 27.697 0.672708 29.6783 1.99225C31.6596 3.31179 33.1716 5.09706 34.1361 7.27042L51.8373 49.1594H57.9375ZM16.2265 46.5721C16.2265 50.8671 12.7332 54.3341 8.40566 54.3341C4.07814 54.3341 0.584839 50.8671 0.584839 46.5721C0.584839 42.2771 4.07814 38.8101 8.40566 38.8101C12.7332 38.8101 16.2265 42.2771 16.2265 46.5721ZM11.0126 46.5721C11.0126 45.1491 9.83947 43.9847 8.40566 43.9847C6.97184 43.9847 5.79872 45.1491 5.79872 46.5721C5.79872 47.9951 6.97184 49.1594 8.40566 49.1594C9.83947 49.1594 11.0126 47.9951 11.0126 46.5721Z" fill="#1C252E"/>
</svg>
