<svg width="21" height="16" viewBox="0 0 21 16" fill="none" xmlns="http://www.w3.org/2000/svg">
<path d="M10.744 0.000488281C11.278 0.00348828 12.614 0.0164882 14.034 0.0734882L14.538 0.0954881C15.967 0.162488 17.395 0.278488 18.104 0.475488C19.049 0.741488 19.791 1.51549 20.042 2.49749C20.442 4.05749 20.492 7.09949 20.498 7.83649L20.499 7.98849V8.16249C20.492 8.89949 20.442 11.9425 20.042 13.5015C19.788 14.4865 19.045 15.2615 18.104 15.5235C17.395 15.7205 15.967 15.8365 14.538 15.9035L14.034 15.9265C12.614 15.9825 11.278 15.9965 10.744 15.9985L10.509 15.9995H10.254C9.124 15.9925 4.398 15.9415 2.894 15.5235C1.95 15.2575 1.207 14.4835 0.956 13.5015C0.556 11.9415 0.506 8.89949 0.5 8.16249V7.83649C0.506 7.09949 0.556 4.05649 0.956 2.49749C1.21 1.51249 1.953 0.737488 2.895 0.476488C4.398 0.0574881 9.125 0.00648828 10.255 0.000488281H10.744ZM8.499 4.50049V11.5005L14.499 8.00049L8.499 4.50049Z" fill="#FCFCF0"/>
</svg>
